<svg width="88" height="88" viewBox="0 0 88 88" fill="none" xmlns="http://www.w3.org/2000/svg">
<path fill-rule="evenodd" clip-rule="evenodd" d="M45.5 7.13325C46.4993 7.31226 47.4737 7.67161 48.3732 8.21131L71.9022 22.3287C75.0649 24.2263 77 27.6441 77 31.3324V88H80V31.3324C80 26.5903 77.512 22.196 73.4457 19.7562L49.9167 5.63883C46.2749 3.45372 41.7251 3.45372 38.0833 5.63883L14.5543 19.7562C10.488 22.196 8 26.5903 8 31.3324V88H11V31.3324C11 27.6441 12.9351 24.2263 16.0978 22.3287L39.6268 8.21131C40.5263 7.67161 41.5007 7.31226 42.5 7.13325V88H45.5V7.13325ZM32.1817 20.9584C30.7998 22.1026 30 23.8033 30 25.5974V87.9999H35V22.2839C35 20.8274 33.3035 20.0296 32.1817 20.9584ZM21.1817 27.6284C19.7998 28.7726 19 30.4733 19 32.2674V87.9999H24V28.9538C24 27.4974 22.3035 26.6995 21.1817 27.6284ZM58 25.5974C58 23.8033 57.2002 22.1026 55.8183 20.9584C54.6965 20.0296 53 20.8274 53 22.2839V87.9999H58V25.5974ZM69 32.2674C69 30.4733 68.2002 28.7726 66.8183 27.6284C65.6965 26.6995 64 27.4974 64 28.9538V87.9999H69V32.2674Z" fill="url(#paint0_linear_5157_95493)"/>
<defs>
<linearGradient id="paint0_linear_5157_95493" x1="44" y1="44" x2="44" y2="83.5" gradientUnits="userSpaceOnUse">
<stop stop-color="white"/>
<stop offset="1" stop-color="white" stop-opacity="0"/>
</linearGradient>
</defs>
</svg>
